<?xml version="1.0" encoding="UTF-8" standalone="no"?>
<!DOCTYPE svg PUBLIC "-//W3C//DTD SVG 1.1//EN" "http://www.w3.org/Graphics/SVG/1.1/DTD/svg11.dtd">
<svg width="100%" height="100%" viewBox="0 0 13 13" version="1.1" xmlns="http://www.w3.org/2000/svg" xmlns:xlink="http://www.w3.org/1999/xlink" xml:space="preserve" xmlns:serif="http://www.serif.com/" style="fill-rule:evenodd;clip-rule:evenodd;stroke-linecap:round;stroke-linejoin:round;stroke-miterlimit:1.5;">
    <g transform="matrix(0.48,0,0,0.480334,-49.4781,-162.862)">
        <g transform="matrix(0.988856,0,0,0.749016,1.21715,90.9942)">
            <path d="M105.58,342.482L105.58,361.691C105.58,364.033 107.02,365.933 108.796,365.933C113.018,365.933 120.39,365.933 124.613,365.933C126.389,365.933 127.828,364.033 127.828,361.691C127.828,354.934 127.828,342.482 127.828,342.482" style="fill:none;stroke:black;stroke-width:2.37px;"/>
        </g>
        <g transform="matrix(-0.988856,-9.66862e-17,1.1489e-16,-0.749016,232.052,614.19)">
            <path d="M111.918,360.926L111.918,365.933L121.546,365.933L121.546,360.926" style="fill:none;stroke:black;stroke-width:2.37px;"/>
        </g>
        <g transform="matrix(1,0,0,0.734121,-0.655974,96.69)">
            <path d="M113.61,345.554L113.61,357.813" style="fill:none;stroke:black;stroke-width:2.37px;"/>
        </g>
        <g transform="matrix(1.3583e-16,-0.791003,2.03923,4.45254e-17,-600.541,433.717)">
            <path d="M113.61,345.554L113.61,357.813" style="fill:none;stroke:black;stroke-width:1.35px;"/>
        </g>
        <g transform="matrix(1,0,0,0.734121,6.67736,96.69)">
            <path d="M113.61,345.554L113.61,357.813" style="fill:none;stroke:black;stroke-width:2.37px;"/>
        </g>
    </g>
</svg>
